<?xml version="1.0" encoding="iso-8859-1"?>
<!-- Generator: Adobe Illustrator 19.0.0, SVG Export Plug-In . SVG Version: 6.00 Build 0)  -->
<svg version="1.1" id="Capa_1" xmlns="http://www.w3.org/2000/svg" xmlns:xlink="http://www.w3.org/1999/xlink" x="0px" y="0px"
	 viewBox="0 0 512 512" style="enable-background:new 0 0 512 512;" xml:space="preserve">
<g>
	<g transform="translate(1 6)">
		<path style="fill:#FF9801;" d="M451.252,154.383c0.598,33.073-14.83,64.394-41.413,84.079
			c-11.361,8.204-18.154,21.313-18.306,35.325v35.946H306.2v-35.905c-0.222-14.136-7.12-27.333-18.599-35.585
			c-38.454-28.689-51.84-80.225-32.209-124.001S322.41,46.183,369.41,55.816S450.424,106.414,451.252,154.383z"/>
		<path style="fill:#F57C00;" d="M451.267,154.341c0.588,33.081-14.824,64.412-41.387,84.137
			c-11.404,8.173-18.22,21.3-18.347,35.329v35.925h-25.6v-35.925c0.127-14.03,6.943-27.156,18.347-35.329
			c33.611-24.932,48.674-67.805,38.043-108.281c-10.631-40.476-44.817-70.414-86.342-75.611c5.711-0.772,11.48-1.029,17.237-0.768
			C407.132,56.591,449.839,100.375,451.267,154.341z"/>
		<g>
			<path style="fill:#2296F3;" d="M195.267,369.467h8.533c14.138,0,25.6,11.462,25.6,25.6V480.4c0,4.713-3.821,8.533-8.533,8.533
				h-204.8c-4.707-0.014-8.52-3.826-8.533-8.533v-85.333c-0.009-6.792,2.685-13.309,7.488-18.112s11.32-7.497,18.112-7.488H195.267z
				"/>
			<rect x="92.867" y="301.2" style="fill:#2296F3;" width="51.2" height="85.333"/>
		</g>
		<path style="fill:#FFEB3A;" d="M195.267,224.4c18.851,0,34.133,15.282,34.133,34.133s-15.282,34.133-34.133,34.133h-153.6
			c-18.851,0-34.133-15.282-34.133-34.133S22.815,224.4,41.667,224.4H195.267z"/>
		<path style="fill:#0377BC;" d="M58.733,198.8H178.2c9.426,0,17.067,7.641,17.067,17.067V301.2c0,9.426-7.641,17.067-17.067,17.067
			H58.733c-9.426,0-17.067-7.641-17.067-17.067v-85.333C41.667,206.441,49.308,198.8,58.733,198.8z"/>
		<path style="fill:#02A9F4;" d="M58.733,198.8H152.6c9.426,0,17.067,7.641,17.067,17.067V301.2c0,9.426-7.641,17.067-17.067,17.067
			H58.733c-9.426,0-17.067-7.641-17.067-17.067v-85.333C41.667,206.441,49.308,198.8,58.733,198.8z"/>
		<circle style="fill:#FFEB3A;" cx="118.467" cy="139.067" r="17.067"/>
		<rect x="41.667" y="369.467" style="fill:#0377BC;" width="153.6" height="128"/>
		<rect x="41.667" y="369.467" style="fill:#02A9F4;" width="128" height="128"/>
		<path style="fill:#607D8B;" d="M408.6,343.867c-0.028,9.414-7.653,17.039-17.067,17.067H383
			c0.002,9.053-3.593,17.737-9.995,24.139c-6.402,6.402-15.085,9.997-24.139,9.995c-4.397,0.034-8.754-0.838-12.8-2.56
			c-12.905-5.164-21.358-17.674-21.333-31.573H306.2c-9.326-0.003-16.923-7.49-17.063-16.815c-0.14-9.325,7.23-17.036,16.551-17.319
			c-9.322-0.283-16.691-7.994-16.551-17.319c0.14-9.325,7.737-16.811,17.063-16.815h85.333c9.426,0,17.067,7.641,17.067,17.067
			s-7.641,17.067-17.067,17.067C400.948,326.827,408.573,334.452,408.6,343.867z"/>
		<g>
			<path style="fill:#CFD8DC;" d="M383,343.867c-0.028,9.414-7.653,17.039-17.067,17.067H357.4
				c0.024,13.9-8.428,26.41-21.333,31.573c-12.905-5.164-21.358-17.674-21.333-31.573H306.2c-9.326-0.003-16.923-7.49-17.063-16.815
				c-0.14-9.325,7.23-17.036,16.551-17.319c-9.322-0.283-16.691-7.994-16.551-17.319c0.14-9.325,7.737-16.811,17.063-16.815h59.733
				c9.326,0.003,16.923,7.49,17.063,16.815c0.14,9.325-7.23,17.036-16.551,17.319C375.656,327.109,382.972,334.651,383,343.867z"/>
			<path style="fill:#CFD8DC;" d="M306.2,292.667h59.733c9.426,0,17.067,7.641,17.067,17.067l0,0
				c0,9.426-7.641,17.067-17.067,17.067H306.2c-9.426,0-17.067-7.641-17.067-17.067l0,0
				C289.133,300.308,296.774,292.667,306.2,292.667z"/>
		</g>
		<rect x="75.8" y="403.6" style="fill:#FFEB3A;" width="85.333" height="93.867"/>
	</g>
	<g>
		<path d="M169.892,290.133c0.001-2.263-0.898-4.434-2.499-6.035c-1.6-1.6-3.771-2.499-6.035-2.499H77.575
			c-4.713,0-8.533,3.821-8.533,8.533c0,4.713,3.82,8.533,8.533,8.533h83.783c2.263,0.001,4.434-0.898,6.035-2.499
			C168.993,294.568,169.892,292.397,169.892,290.133z"/>
		<path d="M85.333,264.533c2.263,0.001,4.434-0.898,6.035-2.499s2.499-3.771,2.499-6.035v-17.067c0-4.713-3.821-8.533-8.533-8.533
			s-8.533,3.821-8.533,8.533V256c-0.001,2.263,0.898,4.434,2.499,6.035C80.899,263.635,83.07,264.534,85.333,264.533z"/>
		<path d="M153.6,264.533c2.263,0.001,4.434-0.898,6.035-2.499c1.6-1.6,2.499-3.771,2.499-6.035v-17.067
			c0-4.713-3.821-8.533-8.533-8.533s-8.533,3.821-8.533,8.533V256c-0.001,2.263,0.898,4.434,2.499,6.035
			C149.166,263.635,151.337,264.534,153.6,264.533z"/>
		<path d="M17.067,503.467h19.441c3.025,5.262,8.623,8.513,14.692,8.533h136.533c9.421-0.011,17.056-7.645,17.067-17.067h17.067
			c9.421-0.011,17.056-7.645,17.067-17.067v-76.8c-0.02-18.843-15.29-34.113-34.133-34.133h-51.2V332.8h25.6
			c14.132-0.015,25.585-11.468,25.6-25.6v-0.862c19.865-4.055,34.133-21.529,34.133-41.804s-14.268-37.749-34.133-41.804v-0.862
			c-0.015-14.132-11.468-25.585-25.6-25.6h-42.668l13.656-10.242c1.81-1.357,3.007-3.377,3.327-5.617
			c0.32-2.24-0.262-4.515-1.619-6.325l-11.133-14.848c7.453-10.717,6.048-25.254-3.318-34.346
			c-9.366-9.092-23.938-10.064-34.429-2.297s-13.814,21.989-7.851,33.601c5.963,11.612,19.457,17.198,31.882,13.198l6.075,8.101
			l-25.031,18.775H59.733c-14.132,0.015-25.585,11.468-25.6,25.6v0.862C14.268,226.784,0,244.259,0,264.533
			s14.268,37.749,34.133,41.804v0.862c0.015,14.132,11.468,25.585,25.6,25.6h25.6v34.133h-51.2
			C15.29,366.953,0.02,382.224,0,401.067V486.4C0.011,495.821,7.645,503.456,17.067,503.467z M110.933,145.067
			c0-4.713,3.821-8.533,8.533-8.533c4.713,0,8.533,3.821,8.533,8.533c0,4.713-3.821,8.533-8.533,8.533
			C114.756,153.595,110.938,149.778,110.933,145.067z M85.333,494.933v-76.8H153.6v76.8H85.333z M221.867,401.067v76.8H204.8V384
			C214.221,384.011,221.856,391.646,221.867,401.067z M187.745,486.343l-0.011,0.057l0.011,0.057l0.001,8.476h-17.079v-76.8
			c-0.011-9.421-7.645-17.056-17.067-17.067H85.333c-9.421,0.011-17.056,7.645-17.067,17.067v76.8H51.2V384h136.533L187.745,486.343
			z M221.867,264.533c-0.013,10.846-6.846,20.511-17.067,24.142v-48.283C215.02,244.022,221.853,253.687,221.867,264.533z
			 M17.067,264.533c0.013-10.846,6.846-20.511,17.067-24.142v48.283C23.913,285.045,17.08,275.379,17.067,264.533z M51.2,307.2
			v-85.333c0.005-4.711,3.822-8.529,8.533-8.533H179.2c4.711,0.005,8.529,3.822,8.533,8.533V307.2
			c-0.005,4.711-3.822,8.529-8.533,8.533H59.733C55.022,315.729,51.205,311.911,51.2,307.2z M102.4,332.8h34.133v34.133H102.4V332.8
			z M17.067,401.067c0.011-9.421,7.645-17.056,17.067-17.067v102.4H17.067V401.067z"/>
		<path d="M238.933,162.133c-0.144,35.046,16.397,68.069,44.55,88.942c9.339,6.629,14.975,17.299,15.183,28.75v11.881
			c-8.071,2.793-14.194,9.46-16.29,17.739c-2.097,8.279,0.114,17.057,5.882,23.355c-6.819,7.474-8.571,18.274-4.466,27.521
			s13.291,15.19,23.408,15.146h0.862c4.055,19.865,21.529,34.133,41.804,34.133c20.275,0,37.749-14.268,41.804-34.133h0.862
			c10.117,0.044,19.303-5.899,23.408-15.146s2.353-20.046-4.466-27.521c5.768-6.298,7.979-15.076,5.882-23.355
			c-2.097-8.279-8.22-14.946-16.29-17.739v-11.923c0.123-11.318,5.646-21.896,14.863-28.467c37.761-28,53.783-76.755,39.993-121.697
			S401.521,53.302,354.554,51.3c-30.21-1.286-59.635,9.819-81.463,30.743C251.264,102.967,238.926,131.896,238.933,162.133z
			 M307.2,307.2h85.333c4.713,0,8.533,3.821,8.533,8.533c0,4.713-3.82,8.533-8.533,8.533H307.2c-4.713,0-8.533-3.821-8.533-8.533
			C298.667,311.021,302.487,307.2,307.2,307.2z M349.867,392.533c-10.813-0.033-20.435-6.868-24.027-17.067h48.055
			C370.302,385.666,360.68,392.5,349.867,392.533z M392.533,358.4H307.2c-4.713,0-8.533-3.821-8.533-8.533
			c0-4.713,3.82-8.533,8.533-8.533h85.333c4.713,0,8.533,3.821,8.533,8.533C401.067,354.579,397.246,358.4,392.533,358.4z
			 M353.854,68.35c39.741,1.707,74.096,28.266,85.756,66.297c11.66,38.031-1.905,79.282-33.86,102.97
			c-13.571,9.773-21.654,25.443-21.75,42.167v10.35h-68.267v-10.308c-0.184-16.835-8.358-32.58-22.021-42.417
			c-33.014-24.635-46.116-67.911-32.309-106.721C275.209,91.878,312.699,66.6,353.854,68.35z"/>
		<path d="M358.4,25.6V8.533c0-4.713-3.821-8.533-8.533-8.533c-4.713,0-8.533,3.821-8.533,8.533V25.6
			c0,4.713,3.821,8.533,8.533,8.533C354.579,34.133,358.4,30.313,358.4,25.6z"/>
		<path d="M452.442,71.625l12.071-12.067c3.332-3.332,3.332-8.735,0-12.067c-3.332-3.332-8.734-3.332-12.067,0l-12.071,12.067
			c-2.156,2.156-2.997,5.297-2.208,8.242s3.089,5.244,6.033,6.033C447.145,74.622,450.286,73.78,452.442,71.625z"/>
		<path d="M247.287,47.492c-3.332-3.332-8.735-3.332-12.067,0c-3.332,3.332-3.332,8.735,0,12.067l12.071,12.067
			c3.332,3.332,8.735,3.332,12.067,0c3.332-3.332,3.332-8.735,0-12.067L247.287,47.492z"/>
		<path d="M503.467,153.6H486.4c-4.713,0-8.533,3.821-8.533,8.533c0,4.713,3.82,8.533,8.533,8.533h17.067
			c4.713,0,8.533-3.821,8.533-8.533C512,157.421,508.18,153.6,503.467,153.6z"/>
		<path d="M213.333,170.667c4.713,0,8.533-3.821,8.533-8.533c0-4.713-3.821-8.533-8.533-8.533h-17.067
			c-4.713,0-8.533,3.821-8.533,8.533c0,4.713,3.821,8.533,8.533,8.533H213.333z"/>
		<path d="M286.483,135.383c4.077,2.362,9.297,0.975,11.663-3.1c10.704-18.445,30.395-29.823,51.721-29.884
			c4.713,0,8.533-3.821,8.533-8.533c0-4.713-3.821-8.533-8.533-8.533c-27.408,0.072-52.719,14.684-66.487,38.383
			C281.015,127.795,282.405,133.019,286.483,135.383z"/>
		<path d="M273.662,171.725c0.533,4.265,4.156,7.469,8.454,7.475c0.358-0.002,0.715-0.024,1.071-0.067
			c4.675-0.585,7.992-4.849,7.408-9.525c-0.308-2.48-0.463-4.976-0.462-7.475c0-4.713-3.821-8.533-8.533-8.533
			s-8.533,3.821-8.533,8.533C273.066,165.34,273.265,168.543,273.662,171.725z"/>
	</g>
</g>
<g>
</g>
<g>
</g>
<g>
</g>
<g>
</g>
<g>
</g>
<g>
</g>
<g>
</g>
<g>
</g>
<g>
</g>
<g>
</g>
<g>
</g>
<g>
</g>
<g>
</g>
<g>
</g>
<g>
</g>
</svg>
